<svg width="34" height="34" viewBox="0 0 34 34" fill="none" xmlns="http://www.w3.org/2000/svg">
<path d="M24.816 17.7869C24.8027 15.5225 25.8287 13.8158 27.9006 12.5574C26.7418 10.8973 24.9887 9.98418 22.6777 9.8082C20.4896 9.63555 18.0957 11.0832 17.2191 11.0832C16.2928 11.0832 14.1744 9.86797 12.5076 9.86797C9.06777 9.92109 5.41211 12.6105 5.41211 18.0824C5.41211 19.6994 5.70762 21.3695 6.29863 23.0895C7.08887 25.3539 9.9377 30.9022 12.9094 30.8125C14.4633 30.776 15.5623 29.7102 17.5844 29.7102C19.5467 29.7102 20.5627 30.8125 22.2959 30.8125C25.2941 30.7693 27.8707 25.7258 28.6211 23.4547C24.6002 21.5588 24.816 17.9031 24.816 17.7869ZM24.4641 26.6522C23.9893 27.3129 23.5111 27.8342 23.0729 28.1695C22.7242 28.4352 22.4553 28.548 22.276 28.5547C21.9771 28.5514 21.6883 28.4783 21.1238 28.2625C21.084 28.2459 21.0408 28.2293 20.9844 28.2094L20.8383 28.1529C20.2605 27.9305 19.9152 27.8109 19.4736 27.6947C18.8561 27.5354 18.2418 27.449 17.5844 27.449C16.9137 27.449 16.2828 27.532 15.6553 27.6881C15.1938 27.8043 14.8053 27.9338 14.2375 28.1463C14.2143 28.1563 13.9686 28.2492 13.8988 28.2758C13.7826 28.3189 13.693 28.3521 13.61 28.382C13.2646 28.5016 13.0455 28.5514 12.8496 28.5547C12.8264 28.5547 12.8064 28.5514 12.7898 28.548C12.7533 28.5414 12.7068 28.5281 12.6537 28.5049C12.5043 28.4451 12.325 28.3356 12.1225 28.1795C11.6576 27.8176 11.1463 27.2498 10.625 26.5227C9.71191 25.241 8.84863 23.541 8.43359 22.349C7.92227 20.8615 7.66992 19.4371 7.66992 18.0791C7.66992 16.0803 8.26094 14.5596 9.27695 13.527C10.1502 12.6438 11.3256 12.149 12.5242 12.1225C12.7201 12.1258 13.0057 12.1723 13.3676 12.2719C13.6531 12.3482 13.9652 12.4512 14.3869 12.6006C14.5131 12.6471 14.948 12.8031 15.0012 12.823C15.2568 12.916 15.4494 12.9824 15.6387 13.0422C16.243 13.2348 16.7111 13.341 17.2191 13.341C17.7338 13.341 18.1754 13.2314 18.8029 13.0156C19.0387 12.9359 19.8953 12.6172 20.048 12.5641C20.898 12.2619 21.5256 12.0992 22.0668 12.0594C22.2262 12.0461 22.3689 12.0461 22.5051 12.0561C23.2588 12.1158 23.9029 12.2652 24.4508 12.5143C23.2023 13.9553 22.5582 15.7184 22.5615 17.7736C22.5516 18.2617 22.5914 18.8262 22.7309 19.4936C22.9434 20.5063 23.3484 21.509 23.9893 22.4486C24.4773 23.1625 25.0816 23.8066 25.8055 24.3678C25.4236 25.1547 24.9555 25.9682 24.4641 26.6522ZM21.3264 7.65996C23.0098 5.66113 22.857 3.8416 22.8072 3.1875C21.3197 3.27383 19.5998 4.2002 18.6203 5.33906C17.5412 6.56094 16.907 8.07168 17.0432 9.775C18.6502 9.89785 20.1178 9.07109 21.3264 7.65996Z" fill="#6D6B6B"/>
</svg>
