<svg width="24" height="24" viewBox="0 0 24 24" fill="none" xmlns="http://www.w3.org/2000/svg">
<path d="M19.5001 21.75H19.3726C4.63507 20.9025 2.54256 8.4675 2.25006 4.6725C2.22649 4.37744 2.26138 4.08062 2.35272 3.79906C2.44406 3.5175 2.59006 3.25673 2.78235 3.03169C2.97464 2.80665 3.20945 2.62177 3.47332 2.48763C3.73719 2.35349 4.02493 2.27274 4.32006 2.25H8.45256C8.75298 2.24971 9.04657 2.33963 9.29529 2.50812C9.54401 2.67661 9.73641 2.9159 9.84756 3.195L10.9876 6C11.0973 6.27266 11.1246 6.57156 11.0659 6.85957C11.0072 7.14758 10.8652 7.412 10.6576 7.62L9.06006 9.2325C9.3096 10.6506 9.9887 11.9578 11.0055 12.9772C12.0223 13.9967 13.3277 14.6792 14.7451 14.9325L16.3726 13.32C16.5837 13.1146 16.8506 12.9759 17.14 12.9213C17.4294 12.8666 17.7286 12.8983 18.0001 13.0125L20.8276 14.145C21.1025 14.2597 21.337 14.4536 21.5013 14.702C21.6656 14.9504 21.7522 15.2422 21.7501 15.54V19.5C21.7501 20.0967 21.513 20.669 21.0911 21.091C20.6691 21.5129 20.0968 21.75 19.5001 21.75ZM4.50006 3.75C4.30115 3.75 4.11039 3.82902 3.96973 3.96967C3.82908 4.11032 3.75006 4.30109 3.75006 4.5V4.56C4.09506 9 6.30756 19.5 19.4551 20.25C19.5536 20.2561 19.6524 20.2427 19.7457 20.2105C19.839 20.1783 19.9251 20.1281 19.9989 20.0626C20.0728 19.9971 20.133 19.9176 20.1761 19.8288C20.2192 19.74 20.2443 19.6436 20.2501 19.545V15.54L17.4226 14.4075L15.2701 16.545L14.9101 16.5C8.38506 15.6825 7.50006 9.1575 7.50006 9.09L7.45506 8.73L9.58506 6.5775L8.46006 3.75H4.50006Z" fill="#6D6B6B"/>
</svg>
