<svg width="24" height="24" viewBox="0 0 24 24" fill="none" xmlns="http://www.w3.org/2000/svg">
<path d="M9.375 7.5C9.375 7.7225 9.30902 7.94001 9.1854 8.12502C9.06179 8.31002 8.88609 8.45422 8.68052 8.53936C8.47495 8.62451 8.24875 8.64679 8.03052 8.60338C7.81229 8.55998 7.61184 8.45283 7.4545 8.2955C7.29717 8.13816 7.19002 7.93771 7.14662 7.71948C7.10321 7.50125 7.12549 7.27505 7.21064 7.06948C7.29578 6.86391 7.43998 6.68821 7.62498 6.5646C7.80999 6.44098 8.0275 6.375 8.25 6.375C8.54837 6.375 8.83452 6.49353 9.0455 6.7045C9.25647 6.91548 9.375 7.20163 9.375 7.5ZM21.375 4.125V19.875C21.375 20.2728 21.217 20.6544 20.9357 20.9357C20.6544 21.217 20.2728 21.375 19.875 21.375H4.125C3.72718 21.375 3.34564 21.217 3.06434 20.9357C2.78304 20.6544 2.625 20.2728 2.625 19.875V4.125C2.625 3.72718 2.78304 3.34564 3.06434 3.06434C3.34564 2.78304 3.72718 2.625 4.125 2.625H19.875C20.2728 2.625 20.6544 2.78304 20.9357 3.06434C21.217 3.34564 21.375 3.72718 21.375 4.125ZM19.875 19.875V4.125H12H4.125V19.875H19.875ZM8.25 9.75C8.05109 9.75 7.86032 9.82902 7.71967 9.96967C7.57902 10.1103 7.5 10.3011 7.5 10.5V16.5C7.5 16.6989 7.57902 16.8897 7.71967 17.0303C7.86032 17.171 8.05109 17.25 8.25 17.25C8.44891 17.25 8.63968 17.171 8.78033 17.0303C8.92098 16.8897 9 16.6989 9 16.5V10.5C9 10.3011 8.92098 10.1103 8.78033 9.96967C8.63968 9.82902 8.44891 9.75 8.25 9.75ZM13.875 9.75C13.1998 9.74996 12.5401 9.95244 11.9813 10.3312C11.9402 10.1513 11.8343 9.99277 11.6837 9.88603C11.5331 9.77928 11.3485 9.73182 11.1651 9.75271C10.9817 9.7736 10.8125 9.86139 10.6898 9.99926C10.567 10.1371 10.4995 10.3154 10.5 10.5V16.5C10.5 16.6989 10.579 16.8897 10.7197 17.0303C10.8603 17.171 11.0511 17.25 11.25 17.25C11.4489 17.25 11.6397 17.171 11.7803 17.0303C11.921 16.8897 12 16.6989 12 16.5V13.125C12 12.6277 12.1975 12.1508 12.5492 11.7992C12.9008 11.4475 13.3777 11.25 13.875 11.25C14.3723 11.25 14.8492 11.4475 15.2008 11.7992C15.5525 12.1508 15.75 12.6277 15.75 13.125V16.5C15.75 16.6989 15.829 16.8897 15.9697 17.0303C16.1103 17.171 16.3011 17.25 16.5 17.25C16.6989 17.25 16.8897 17.171 17.0303 17.0303C17.171 16.8897 17.25 16.6989 17.25 16.5V13.125C17.25 12.2299 16.8944 11.3715 16.2615 10.7385C15.6285 10.1056 14.7701 9.75 13.875 9.75Z" fill="#3F3D56"/>
</svg>
