<svg width="32" height="33" viewBox="0 0 32 33" fill="none" xmlns="http://www.w3.org/2000/svg">
<path fill-rule="evenodd" clip-rule="evenodd" d="M9.95333 1.79442C11.5173 1.72242 12.016 1.70642 16 1.70642C19.984 1.70642 20.4827 1.72375 22.0453 1.79442C23.608 1.86509 24.6747 2.11442 25.608 2.47575C26.5853 2.84509 27.472 3.42242 28.2053 4.16909C28.952 4.90109 29.528 5.78642 29.896 6.76509C30.2587 7.69842 30.5067 8.76509 30.5787 10.3251C30.6507 11.8918 30.6667 12.3904 30.6667 16.3731C30.6667 20.3571 30.6493 20.8558 30.5787 22.4198C30.508 23.9798 30.2587 25.0464 29.896 25.9798C29.528 26.9585 28.951 27.8454 28.2053 28.5784C27.472 29.3251 26.5853 29.9011 25.608 30.2691C24.6747 30.6318 23.608 30.8798 22.048 30.9518C20.4827 31.0238 19.984 31.0398 16 31.0398C12.016 31.0398 11.5173 31.0224 9.95333 30.9518C8.39333 30.8811 7.32667 30.6318 6.39333 30.2691C5.41456 29.901 4.52776 29.3241 3.79467 28.5784C3.04851 27.846 2.47109 26.9596 2.10267 25.9811C1.74133 25.0478 1.49333 23.9811 1.42133 22.4211C1.34933 20.8544 1.33333 20.3558 1.33333 16.3731C1.33333 12.3891 1.35067 11.8904 1.42133 10.3278C1.492 8.76509 1.74133 7.69842 2.10267 6.76509C2.47163 5.78653 3.04949 4.90017 3.796 4.16775C4.52805 3.42176 5.41396 2.84435 6.392 2.47575C7.32533 2.11442 8.392 1.86642 9.952 1.79442H9.95333ZM21.9267 4.43442C20.38 4.36375 19.916 4.34909 16 4.34909C12.084 4.34909 11.62 4.36375 10.0733 4.43442C8.64267 4.49975 7.86667 4.73842 7.34933 4.93975C6.66533 5.20642 6.176 5.52242 5.66267 6.03575C5.17606 6.50916 4.80157 7.08546 4.56667 7.72242C4.36533 8.23975 4.12667 9.01575 4.06133 10.4464C3.99067 11.9931 3.976 12.4571 3.976 16.3731C3.976 20.2891 3.99067 20.7531 4.06133 22.2998C4.12667 23.7304 4.36533 24.5064 4.56667 25.0238C4.80133 25.6598 5.176 26.2371 5.66267 26.7104C6.136 27.1971 6.71333 27.5718 7.34933 27.8064C7.86667 28.0078 8.64267 28.2464 10.0733 28.3118C11.62 28.3824 12.0827 28.3971 16 28.3971C19.9173 28.3971 20.38 28.3824 21.9267 28.3118C23.3573 28.2464 24.1333 28.0078 24.6507 27.8064C25.3347 27.5398 25.824 27.2238 26.3373 26.7104C26.824 26.2371 27.1987 25.6598 27.4333 25.0238C27.6347 24.5064 27.8733 23.7304 27.9387 22.2998C28.0093 20.7531 28.024 20.2891 28.024 16.3731C28.024 12.4571 28.0093 11.9931 27.9387 10.4464C27.8733 9.01575 27.6347 8.23975 27.4333 7.72242C27.1667 7.03842 26.8507 6.54909 26.3373 6.03575C25.8639 5.54918 25.2876 5.1747 24.6507 4.93975C24.1333 4.73842 23.3573 4.49975 21.9267 4.43442ZM14.1267 20.8944C15.1729 21.3299 16.3378 21.3887 17.4226 21.0607C18.5073 20.7327 19.4445 20.0383 20.0741 19.0961C20.7038 18.1538 20.9867 17.0222 20.8747 15.8946C20.7627 14.7669 20.2627 13.7131 19.46 12.9131C18.9483 12.4017 18.3296 12.0102 17.6484 11.7666C16.9673 11.5231 16.2406 11.4336 15.5207 11.5046C14.8007 11.5756 14.1055 11.8053 13.4851 12.1773C12.8646 12.5492 12.3343 13.0541 11.9324 13.6556C11.5305 14.257 11.2669 14.9401 11.1607 15.6557C11.0545 16.3713 11.1082 17.1015 11.3181 17.7938C11.5279 18.4861 11.8886 19.1232 12.3743 19.6594C12.8599 20.1955 13.4584 20.6173 14.1267 20.8944ZM10.6693 11.0424C11.3694 10.3424 12.2004 9.78709 13.1151 9.40824C14.0297 9.02938 15.01 8.83439 16 8.83439C16.99 8.83439 17.9703 9.02938 18.8849 9.40824C19.7996 9.78709 20.6306 10.3424 21.3307 11.0424C22.0307 11.7425 22.586 12.5735 22.9649 13.4882C23.3437 14.4028 23.5387 15.3831 23.5387 16.3731C23.5387 17.3631 23.3437 18.3434 22.9649 19.258C22.586 20.1727 22.0307 21.0037 21.3307 21.7038C19.9169 23.1175 17.9994 23.9118 16 23.9118C14.0006 23.9118 12.0831 23.1175 10.6693 21.7038C9.25555 20.29 8.4613 18.3725 8.4613 16.3731C8.4613 14.3737 9.25555 12.4562 10.6693 11.0424ZM25.2107 9.95709C25.3841 9.79345 25.523 9.59666 25.6191 9.37839C25.7151 9.16011 25.7664 8.92478 25.7699 8.68633C25.7734 8.44788 25.729 8.21115 25.6393 7.99017C25.5497 7.76918 25.4166 7.56844 25.2479 7.39981C25.0793 7.23118 24.8786 7.0981 24.6576 7.00844C24.4366 6.91879 24.1999 6.87439 23.9614 6.87786C23.723 6.88134 23.4876 6.93263 23.2694 7.02868C23.0511 7.12474 22.8543 7.26361 22.6907 7.43709C22.3724 7.77446 22.1982 8.22258 22.2049 8.68633C22.2117 9.15007 22.3989 9.59293 22.7269 9.92088C23.0548 10.2488 23.4977 10.4361 23.9614 10.4428C24.4252 10.4496 24.8733 10.2753 25.2107 9.95709Z" fill="#6D6B6B"/>
</svg>
