<svg width="32" height="33" viewBox="0 0 32 33" fill="none" xmlns="http://www.w3.org/2000/svg">
<path fill-rule="evenodd" clip-rule="evenodd" d="M1.33333 4.15709C1.33333 3.50713 1.59153 2.8838 2.05112 2.42421C2.51071 1.96462 3.13404 1.70642 3.784 1.70642H28.2133C28.5354 1.7059 28.8545 1.76891 29.1522 1.89185C29.4499 2.01478 29.7204 2.19524 29.9483 2.42287C30.1762 2.65051 30.357 2.92086 30.4802 3.21844C30.6035 3.51602 30.6668 3.83499 30.6667 4.15709V28.5864C30.667 28.9086 30.6038 29.2277 30.4808 29.5254C30.3577 29.8231 30.1771 30.0936 29.9494 30.3215C29.7216 30.5494 29.4512 30.7301 29.1535 30.8533C28.8559 30.9766 28.5368 31.0399 28.2147 31.0398H3.784C3.46206 31.0398 3.14328 30.9763 2.84586 30.8531C2.54845 30.7298 2.27823 30.5492 2.05064 30.3215C1.82306 30.0938 1.64257 29.8235 1.5195 29.526C1.39642 29.2285 1.33316 28.9097 1.33333 28.5878V4.15709ZM12.944 12.8904H16.916V14.8851C17.4893 13.7384 18.956 12.7064 21.16 12.7064C25.3853 12.7064 26.3867 14.9904 26.3867 19.1811V26.9438H22.1107V20.1358C22.1107 17.7491 21.5373 16.4024 20.0813 16.4024C18.0613 16.4024 17.2213 17.8544 17.2213 20.1358V26.9438H12.944V12.8904ZM5.61067 26.7611H9.888V12.7064H5.61067V26.7598V26.7611ZM10.5 8.12242C10.5081 8.48865 10.4429 8.85281 10.3083 9.19351C10.1737 9.53421 9.97247 9.8446 9.71631 10.1065C9.46015 10.3683 9.15426 10.5764 8.81661 10.7184C8.47895 10.8605 8.11632 10.9336 7.75 10.9336C7.38368 10.9336 7.02105 10.8605 6.68339 10.7184C6.34573 10.5764 6.03985 10.3683 5.78369 10.1065C5.52753 9.8446 5.32626 9.53421 5.19168 9.19351C5.0571 8.85281 4.99193 8.48865 5 8.12242C5.01583 7.40356 5.31251 6.71948 5.82651 6.21667C6.34051 5.71387 7.03096 5.43231 7.75 5.43231C8.46903 5.43231 9.15949 5.71387 9.67349 6.21667C10.1875 6.71948 10.4842 7.40356 10.5 8.12242V8.12242Z" fill="black"/>
</svg>
