<svg width="30" height="30" viewBox="0 0 30 30" fill="none" xmlns="http://www.w3.org/2000/svg">
<path d="M16.93 13.0698C15.9061 12.0464 14.5177 11.4714 13.07 11.4714C11.6223 11.4714 10.2339 12.0464 9.21001 13.0698L5.34876 16.9298C4.32486 17.9537 3.74963 19.3424 3.74963 20.7905C3.74963 22.2385 4.32486 23.6272 5.34876 24.6511C6.37266 25.675 7.76137 26.2502 9.20938 26.2502C10.6574 26.2502 12.0461 25.675 13.07 24.6511L15 22.7211" stroke="#6D6B6B" stroke-width="2" stroke-linecap="round" stroke-linejoin="round"/>
<path d="M13.0699 16.9299C14.0938 17.9533 15.4823 18.5283 16.9299 18.5283C18.3776 18.5283 19.7661 17.9533 20.7899 16.9299L24.6512 13.0699C25.6751 12.046 26.2503 10.6573 26.2503 9.20926C26.2503 7.76124 25.6751 6.37254 24.6512 5.34863C23.6273 4.32473 22.2386 3.74951 20.7906 3.74951C19.3426 3.74951 17.9538 4.32473 16.9299 5.34863L14.9999 7.27863" stroke="#6D6B6B" stroke-width="2" stroke-linecap="round" stroke-linejoin="round"/>
</svg>
