<svg width="30" height="30" viewBox="0 0 30 30" fill="none" xmlns="http://www.w3.org/2000/svg">
<g clip-path="url(#clip0_129_1368)">
<path d="M3 1.00005L3.504 0.136052C3.35203 0.0473715 3.17935 0.000358931 3.00339 -0.000238377C2.82744 -0.000835685 2.65445 0.0450034 2.50188 0.13265C2.3493 0.220297 2.22256 0.346649 2.13444 0.498947C2.04632 0.651246 1.99995 0.824098 2 1.00005H3ZM3 29.0001H2C1.99995 29.176 2.04632 29.3489 2.13444 29.5012C2.22256 29.6535 2.3493 29.7798 2.50188 29.8675C2.65445 29.9551 2.82744 30.0009 3.00339 30.0003C3.17935 29.9997 3.35203 29.9527 3.504 29.8641L3 29.0001ZM27 15.0001L27.504 15.8641C27.6551 15.776 27.7804 15.6499 27.8675 15.4983C27.9547 15.3467 28.0005 15.1749 28.0005 15.0001C28.0005 14.8252 27.9547 14.6534 27.8675 14.5018C27.7804 14.3502 27.6551 14.2241 27.504 14.1361L27 15.0001ZM2 1.00005V29.0001H4V1.00005H2ZM3.504 29.8641L27.504 15.8641L26.496 14.1361L2.496 28.1361L3.504 29.8641ZM27.504 14.1361L3.504 0.136052L2.496 1.86405L26.496 15.8641L27.504 14.1361ZM3.658 25.7521L19.658 11.7521L18.342 10.2481L2.342 24.2481L3.658 25.7521ZM2.342 5.75205L18.342 19.7521L19.658 18.2481L3.658 4.24805L2.342 5.75205Z" fill="#6D6B6B"/>
</g>
<defs>
<clipPath id="clip0_129_1368">
<rect width="30" height="30" fill="white"/>
</clipPath>
</defs>
</svg>
