<svg width="512" height="512" viewBox="0 0 512 512" fill="none" xmlns="http://www.w3.org/2000/svg">
<g clip-path="url(#clip0_1_2)">
<path d="M361.5 1.20001C366.5 3.30001 370.1 7.80001 371.1 13.1L391 121L498.9 140.8C504.2 141.8 508.7 145.4 510.8 150.4C512.9 155.4 512.3 161.1 509.2 165.6L446.9 256L509.2 346.3C512.3 350.8 512.9 356.5 510.8 361.5C508.7 366.5 504.2 370.1 498.9 371.1L391 391L371.1 498.9C370.1 504.2 366.5 508.7 361.5 510.8C356.5 512.9 350.8 512.3 346.3 509.2L256 446.9L165.7 509.2C161.2 512.3 155.5 512.9 150.5 510.8C145.5 508.7 141.9 504.2 140.9 498.9L121 391L13.1 371.1C7.80001 370.1 3.30001 366.5 1.20001 361.5C-0.899993 356.5 -0.299994 350.8 2.80001 346.3L65.1 256L2.80001 165.7C-0.299994 161.2 -0.899993 155.5 1.20001 150.5C3.30001 145.5 7.80001 141.9 13.1 140.9L121 121L140.9 13.1C141.9 7.80001 145.5 3.30001 150.5 1.20001C155.5 -0.899993 161.2 -0.299994 165.7 2.80001L256 65.1L346.3 2.80001C350.8 -0.299994 356.5 -0.899993 361.5 1.20001ZM160 256C160 230.539 170.114 206.121 188.118 188.118C206.121 170.114 230.539 160 256 160C281.461 160 305.879 170.114 323.882 188.118C341.886 206.121 352 230.539 352 256C352 281.461 341.886 305.879 323.882 323.882C305.879 341.886 281.461 352 256 352C230.539 352 206.121 341.886 188.118 323.882C170.114 305.879 160 281.461 160 256ZM384 256C384 222.052 370.514 189.495 346.51 165.49C322.505 141.486 289.948 128 256 128C222.052 128 189.495 141.486 165.49 165.49C141.486 189.495 128 222.052 128 256C128 289.948 141.486 322.505 165.49 346.51C189.495 370.514 222.052 384 256 384C289.948 384 322.505 370.514 346.51 346.51C370.514 322.505 384 289.948 384 256Z" fill="#E6B63B"/>
</g>
<defs>
<clipPath id="clip0_1_2">
<rect width="512" height="512" fill="white"/>
</clipPath>
</defs>
</svg>
